<?xml version="1.0" encoding="utf-8" standalone="no"?>
<!DOCTYPE svg PUBLIC "-//W3C//DTD SVG 1.1//EN"
  "http://www.w3.org/Graphics/SVG/1.1/DTD/svg11.dtd">
<svg xmlns:xlink="http://www.w3.org/1999/xlink" width="504pt" height="360pt" viewBox="0 0 504 360" xmlns="http://www.w3.org/2000/svg" version="1.1">
 <metadata>
  <rdf:RDF xmlns:dc="http://purl.org/dc/elements/1.1/" xmlns:cc="http://creativecommons.org/ns#" xmlns:rdf="http://www.w3.org/1999/02/22-rdf-syntax-ns#">
   <cc:Work>
    <dc:type rdf:resource="http://purl.org/dc/dcmitype/StillImage"/>
    <dc:date>2024-01-13T15:24:19.570728</dc:date>
    <dc:format>image/svg+xml</dc:format>
    <dc:creator>
     <cc:Agent>
      <dc:title>Matplotlib v3.7.1, https://matplotlib.org/</dc:title>
     </cc:Agent>
    </dc:creator>
   </cc:Work>
  </rdf:RDF>
 </metadata>
 <defs>
  <style type="text/css">*{stroke-linejoin: round; stroke-linecap: butt}</style>
 </defs>
 <g id="figure_1">
  <g id="patch_1">
   <path d="M 0 360 
L 504 360 
L 504 0 
L 0 0 
z
" style="fill: #ffffff"/>
  </g>
  <g id="axes_1">
   <g id="patch_2">
    <path d="M 28.48 314.44 
L 493.2 314.44 
L 493.2 10.8 
L 28.48 10.8 
z
" style="fill: #ffffff"/>
   </g>
   <g id="matplotlib.axis_1">
    <g id="xtick_1">
     <g id="line2d_1">
      <defs>
       <path id="m7023ba5a8c" d="M 0 0 
L 0 3.5 
" style="stroke: #000000; stroke-width: 0.8"/>
      </defs>
      <g>
       <use xlink:href="#m7023ba5a8c" x="86.34359" y="314.44" style="stroke: #000000; stroke-width: 0.8"/>
      </g>
     </g>
     <g id="text_1">
      <!-- 20 -->
      <g transform="translate(79.98109 329.038437) scale(0.1 -0.1)">
       <defs>
        <path id="DejaVuSans-32" d="M 1228 531 
L 3431 531 
L 3431 0 
L 469 0 
L 469 531 
Q 828 903 1448 1529 
Q 2069 2156 2228 2338 
Q 2531 2678 2651 2914 
Q 2772 3150 2772 3378 
Q 2772 3750 2511 3984 
Q 2250 4219 1831 4219 
Q 1534 4219 1204 4116 
Q 875 4013 500 3803 
L 500 4441 
Q 881 4594 1212 4672 
Q 1544 4750 1819 4750 
Q 2544 4750 2975 4387 
Q 3406 4025 3406 3419 
Q 3406 3131 3298 2873 
Q 3191 2616 2906 2266 
Q 2828 2175 2409 1742 
Q 1991 1309 1228 531 
z
" transform="scale(0.015625)"/>
        <path id="DejaVuSans-30" d="M 2034 4250 
Q 1547 4250 1301 3770 
Q 1056 3291 1056 2328 
Q 1056 1369 1301 889 
Q 1547 409 2034 409 
Q 2525 409 2770 889 
Q 3016 1369 3016 2328 
Q 3016 3291 2770 3770 
Q 2525 4250 2034 4250 
z
M 2034 4750 
Q 2819 4750 3233 4129 
Q 3647 3509 3647 2328 
Q 3647 1150 3233 529 
Q 2819 -91 2034 -91 
Q 1250 -91 836 529 
Q 422 1150 422 2328 
Q 422 3509 836 4129 
Q 1250 4750 2034 4750 
z
" transform="scale(0.015625)"/>
       </defs>
       <use xlink:href="#DejaVuSans-32"/>
       <use xlink:href="#DejaVuSans-30" x="63.623047"/>
      </g>
     </g>
    </g>
    <g id="xtick_2">
     <g id="line2d_2">
      <g>
       <use xlink:href="#m7023ba5a8c" x="159.823497" y="314.44" style="stroke: #000000; stroke-width: 0.8"/>
      </g>
     </g>
     <g id="text_2">
      <!-- 40 -->
      <g transform="translate(153.460997 329.038437) scale(0.1 -0.1)">
       <defs>
        <path id="DejaVuSans-34" d="M 2419 4116 
L 825 1625 
L 2419 1625 
L 2419 4116 
z
M 2253 4666 
L 3047 4666 
L 3047 1625 
L 3713 1625 
L 3713 1100 
L 3047 1100 
L 3047 0 
L 2419 0 
L 2419 1100 
L 313 1100 
L 313 1709 
L 2253 4666 
z
" transform="scale(0.015625)"/>
       </defs>
       <use xlink:href="#DejaVuSans-34"/>
       <use xlink:href="#DejaVuSans-30" x="63.623047"/>
      </g>
     </g>
    </g>
    <g id="xtick_3">
     <g id="line2d_3">
      <g>
       <use xlink:href="#m7023ba5a8c" x="233.303405" y="314.44" style="stroke: #000000; stroke-width: 0.8"/>
      </g>
     </g>
     <g id="text_3">
      <!-- 60 -->
      <g transform="translate(226.940905 329.038437) scale(0.1 -0.1)">
       <defs>
        <path id="DejaVuSans-36" d="M 2113 2584 
Q 1688 2584 1439 2293 
Q 1191 2003 1191 1497 
Q 1191 994 1439 701 
Q 1688 409 2113 409 
Q 2538 409 2786 701 
Q 3034 994 3034 1497 
Q 3034 2003 2786 2293 
Q 2538 2584 2113 2584 
z
M 3366 4563 
L 3366 3988 
Q 3128 4100 2886 4159 
Q 2644 4219 2406 4219 
Q 1781 4219 1451 3797 
Q 1122 3375 1075 2522 
Q 1259 2794 1537 2939 
Q 1816 3084 2150 3084 
Q 2853 3084 3261 2657 
Q 3669 2231 3669 1497 
Q 3669 778 3244 343 
Q 2819 -91 2113 -91 
Q 1303 -91 875 529 
Q 447 1150 447 2328 
Q 447 3434 972 4092 
Q 1497 4750 2381 4750 
Q 2619 4750 2861 4703 
Q 3103 4656 3366 4563 
z
" transform="scale(0.015625)"/>
       </defs>
       <use xlink:href="#DejaVuSans-36"/>
       <use xlink:href="#DejaVuSans-30" x="63.623047"/>
      </g>
     </g>
    </g>
    <g id="xtick_4">
     <g id="line2d_4">
      <g>
       <use xlink:href="#m7023ba5a8c" x="306.783312" y="314.44" style="stroke: #000000; stroke-width: 0.8"/>
      </g>
     </g>
     <g id="text_4">
      <!-- 80 -->
      <g transform="translate(300.420812 329.038437) scale(0.1 -0.1)">
       <defs>
        <path id="DejaVuSans-38" d="M 2034 2216 
Q 1584 2216 1326 1975 
Q 1069 1734 1069 1313 
Q 1069 891 1326 650 
Q 1584 409 2034 409 
Q 2484 409 2743 651 
Q 3003 894 3003 1313 
Q 3003 1734 2745 1975 
Q 2488 2216 2034 2216 
z
M 1403 2484 
Q 997 2584 770 2862 
Q 544 3141 544 3541 
Q 544 4100 942 4425 
Q 1341 4750 2034 4750 
Q 2731 4750 3128 4425 
Q 3525 4100 3525 3541 
Q 3525 3141 3298 2862 
Q 3072 2584 2669 2484 
Q 3125 2378 3379 2068 
Q 3634 1759 3634 1313 
Q 3634 634 3220 271 
Q 2806 -91 2034 -91 
Q 1263 -91 848 271 
Q 434 634 434 1313 
Q 434 1759 690 2068 
Q 947 2378 1403 2484 
z
M 1172 3481 
Q 1172 3119 1398 2916 
Q 1625 2713 2034 2713 
Q 2441 2713 2670 2916 
Q 2900 3119 2900 3481 
Q 2900 3844 2670 4047 
Q 2441 4250 2034 4250 
Q 1625 4250 1398 4047 
Q 1172 3844 1172 3481 
z
" transform="scale(0.015625)"/>
       </defs>
       <use xlink:href="#DejaVuSans-38"/>
       <use xlink:href="#DejaVuSans-30" x="63.623047"/>
      </g>
     </g>
    </g>
    <g id="xtick_5">
     <g id="line2d_5">
      <g>
       <use xlink:href="#m7023ba5a8c" x="380.263219" y="314.44" style="stroke: #000000; stroke-width: 0.8"/>
      </g>
     </g>
     <g id="text_5">
      <!-- 100 -->
      <g transform="translate(370.719469 329.038437) scale(0.1 -0.1)">
       <defs>
        <path id="DejaVuSans-31" d="M 794 531 
L 1825 531 
L 1825 4091 
L 703 3866 
L 703 4441 
L 1819 4666 
L 2450 4666 
L 2450 531 
L 3481 531 
L 3481 0 
L 794 0 
L 794 531 
z
" transform="scale(0.015625)"/>
       </defs>
       <use xlink:href="#DejaVuSans-31"/>
       <use xlink:href="#DejaVuSans-30" x="63.623047"/>
       <use xlink:href="#DejaVuSans-30" x="127.246094"/>
      </g>
     </g>
    </g>
    <g id="xtick_6">
     <g id="line2d_6">
      <g>
       <use xlink:href="#m7023ba5a8c" x="453.743127" y="314.44" style="stroke: #000000; stroke-width: 0.8"/>
      </g>
     </g>
     <g id="text_6">
      <!-- 120 -->
      <g transform="translate(444.199377 329.038437) scale(0.1 -0.1)">
       <use xlink:href="#DejaVuSans-31"/>
       <use xlink:href="#DejaVuSans-32" x="63.623047"/>
       <use xlink:href="#DejaVuSans-30" x="127.246094"/>
      </g>
     </g>
    </g>
    <g id="text_7">
     <!-- 2θ (°) -->
     <g transform="translate(242.421641 346.037656) scale(0.15 -0.15)">
      <defs>
       <path id="ArialMT-32" d="M 3222 541 
L 3222 0 
L 194 0 
Q 188 203 259 391 
Q 375 700 629 1000 
Q 884 1300 1366 1694 
Q 2113 2306 2375 2664 
Q 2638 3022 2638 3341 
Q 2638 3675 2398 3904 
Q 2159 4134 1775 4134 
Q 1369 4134 1125 3890 
Q 881 3647 878 3216 
L 300 3275 
Q 359 3922 746 4261 
Q 1134 4600 1788 4600 
Q 2447 4600 2831 4234 
Q 3216 3869 3216 3328 
Q 3216 3053 3103 2787 
Q 2991 2522 2730 2228 
Q 2469 1934 1863 1422 
Q 1356 997 1212 845 
Q 1069 694 975 541 
L 3222 541 
z
" transform="scale(0.015625)"/>
       <path id="ArialMT-3b8" d="M 288 2291 
Q 288 4659 1781 4659 
Q 3275 4659 3275 2291 
Q 3275 -75 1781 -75 
Q 288 -75 288 2291 
z
M 869 2519 
L 2694 2519 
Q 2663 3497 2413 3847 
Q 2163 4197 1775 4197 
Q 903 4197 869 2519 
z
M 2694 2066 
L 869 2066 
Q 903 388 1781 388 
Q 2663 388 2694 2066 
z
" transform="scale(0.015625)"/>
       <path id="ArialMT-20" transform="scale(0.015625)"/>
       <path id="ArialMT-28" d="M 1497 -1347 
Q 1031 -759 709 28 
Q 388 816 388 1659 
Q 388 2403 628 3084 
Q 909 3875 1497 4659 
L 1900 4659 
Q 1522 4009 1400 3731 
Q 1209 3300 1100 2831 
Q 966 2247 966 1656 
Q 966 153 1900 -1347 
L 1497 -1347 
z
" transform="scale(0.015625)"/>
       <path id="ArialMT-b0" d="M 400 3794 
Q 400 4153 654 4406 
Q 909 4659 1266 4659 
Q 1628 4659 1881 4406 
Q 2134 4153 2134 3794 
Q 2134 3434 1879 3179 
Q 1625 2925 1266 2925 
Q 909 2925 654 3178 
Q 400 3431 400 3794 
z
M 741 3794 
Q 741 3575 895 3420 
Q 1050 3266 1269 3266 
Q 1484 3266 1639 3420 
Q 1794 3575 1794 3794 
Q 1794 4013 1639 4167 
Q 1484 4322 1269 4322 
Q 1050 4322 895 4167 
Q 741 4013 741 3794 
z
" transform="scale(0.015625)"/>
       <path id="ArialMT-29" d="M 791 -1347 
L 388 -1347 
Q 1322 153 1322 1656 
Q 1322 2244 1188 2822 
Q 1081 3291 891 3722 
Q 769 4003 388 4659 
L 791 4659 
Q 1378 3875 1659 3084 
Q 1900 2403 1900 1659 
Q 1900 816 1576 28 
Q 1253 -759 791 -1347 
z
" transform="scale(0.015625)"/>
      </defs>
      <use xlink:href="#ArialMT-32"/>
      <use xlink:href="#ArialMT-3b8" x="55.615234"/>
      <use xlink:href="#ArialMT-20" x="111.230469"/>
      <use xlink:href="#ArialMT-28" x="139.013672"/>
      <use xlink:href="#ArialMT-b0" x="172.314453"/>
      <use xlink:href="#ArialMT-29" x="212.304688"/>
     </g>
    </g>
   </g>
   <g id="matplotlib.axis_2">
    <g id="text_8">
     <!-- I (a.u.) -->
     <g transform="translate(21.322969 184.290312) rotate(-90) scale(0.15 -0.15)">
      <defs>
       <path id="ArialMT-49" d="M 597 0 
L 597 4581 
L 1203 4581 
L 1203 0 
L 597 0 
z
" transform="scale(0.015625)"/>
       <path id="ArialMT-61" d="M 2588 409 
Q 2275 144 1986 34 
Q 1697 -75 1366 -75 
Q 819 -75 525 192 
Q 231 459 231 875 
Q 231 1119 342 1320 
Q 453 1522 633 1644 
Q 813 1766 1038 1828 
Q 1203 1872 1538 1913 
Q 2219 1994 2541 2106 
Q 2544 2222 2544 2253 
Q 2544 2597 2384 2738 
Q 2169 2928 1744 2928 
Q 1347 2928 1158 2789 
Q 969 2650 878 2297 
L 328 2372 
Q 403 2725 575 2942 
Q 747 3159 1072 3276 
Q 1397 3394 1825 3394 
Q 2250 3394 2515 3294 
Q 2781 3194 2906 3042 
Q 3031 2891 3081 2659 
Q 3109 2516 3109 2141 
L 3109 1391 
Q 3109 606 3145 398 
Q 3181 191 3288 0 
L 2700 0 
Q 2613 175 2588 409 
z
M 2541 1666 
Q 2234 1541 1622 1453 
Q 1275 1403 1131 1340 
Q 988 1278 909 1158 
Q 831 1038 831 891 
Q 831 666 1001 516 
Q 1172 366 1500 366 
Q 1825 366 2078 508 
Q 2331 650 2450 897 
Q 2541 1088 2541 1459 
L 2541 1666 
z
" transform="scale(0.015625)"/>
       <path id="ArialMT-2e" d="M 581 0 
L 581 641 
L 1222 641 
L 1222 0 
L 581 0 
z
" transform="scale(0.015625)"/>
       <path id="ArialMT-75" d="M 2597 0 
L 2597 488 
Q 2209 -75 1544 -75 
Q 1250 -75 995 37 
Q 741 150 617 320 
Q 494 491 444 738 
Q 409 903 409 1263 
L 409 3319 
L 972 3319 
L 972 1478 
Q 972 1038 1006 884 
Q 1059 663 1231 536 
Q 1403 409 1656 409 
Q 1909 409 2131 539 
Q 2353 669 2445 892 
Q 2538 1116 2538 1541 
L 2538 3319 
L 3100 3319 
L 3100 0 
L 2597 0 
z
" transform="scale(0.015625)"/>
      </defs>
      <use xlink:href="#ArialMT-49"/>
      <use xlink:href="#ArialMT-20" x="27.783203"/>
      <use xlink:href="#ArialMT-28" x="55.566406"/>
      <use xlink:href="#ArialMT-61" x="88.867188"/>
      <use xlink:href="#ArialMT-2e" x="144.482422"/>
      <use xlink:href="#ArialMT-75" x="172.265625"/>
      <use xlink:href="#ArialMT-2e" x="227.880859"/>
      <use xlink:href="#ArialMT-29" x="255.664062"/>
     </g>
    </g>
   </g>
   <g id="line2d_7">
    <path d="M 49.603636 264.584499 
L 89.319526 264.430564 
L 92.185243 264.259976 
L 93.103742 263.99767 
L 94.61008 263.449104 
L 95.161179 263.655136 
L 96.336857 264.141261 
L 97.439056 264.273745 
L 100.084333 264.302385 
L 106.807744 264.128639 
L 111.951338 263.802306 
L 115.147714 263.391328 
L 117.315371 262.901243 
L 118.895189 262.328603 
L 120.144347 261.642479 
L 121.136326 260.848645 
L 121.981345 259.889543 
L 122.716144 258.72079 
L 123.377463 257.251671 
L 124.002043 255.291984 
L 124.553142 252.82916 
L 125.067501 249.529169 
L 125.545121 245.048246 
L 126.02274 238.249923 
L 126.463619 228.365231 
L 126.867759 213.911445 
L 127.271898 190.694747 
L 127.712778 150.553194 
L 128.925196 25.026666 
L 128.998676 24.601818 
L 129.035416 24.919681 
L 129.145636 27.963254 
L 129.366076 42.677185 
L 129.770215 89.501992 
L 130.578494 181.276199 
L 131.056114 211.616943 
L 131.533733 229.019088 
L 132.048092 239.883771 
L 132.599192 246.842881 
L 133.187031 251.465316 
L 133.81161 254.642444 
L 134.472929 256.891569 
L 135.170988 258.524216 
L 135.942527 259.7856 
L 136.787546 260.758325 
L 137.779525 261.559235 
L 138.955204 262.21302 
L 140.388062 262.747689 
L 142.22506 263.186551 
L 144.649897 263.525547 
L 147.662573 263.717775 
L 150.271109 263.679589 
L 151.777448 263.45698 
L 152.659206 263.12325 
L 153.283786 262.654732 
L 153.761405 262.016488 
L 154.202284 261.015463 
L 154.643164 259.368718 
L 155.231003 256.079117 
L 155.782102 253.34302 
L 156.002542 252.977988 
L 156.149502 253.058134 
L 156.333202 253.511717 
L 156.663861 255.08613 
L 157.72932 260.637349 
L 158.206939 261.88962 
L 158.721299 262.653441 
L 159.309138 263.142917 
L 160.080677 263.492552 
L 161.219616 263.745773 
L 163.056613 263.901309 
L 165.95907 263.909027 
L 168.935006 263.711404 
L 170.992443 263.367513 
L 172.388562 262.916305 
L 173.38054 262.370902 
L 174.152079 261.699906 
L 174.776659 260.87384 
L 175.327758 259.779738 
L 175.842117 258.221183 
L 176.282997 256.165949 
L 176.723876 252.952842 
L 177.164756 247.808142 
L 177.605635 239.841316 
L 178.230214 223.73792 
L 178.965013 205.661239 
L 179.258933 202.441135 
L 179.369153 202.18605 
L 179.405893 202.226671 
L 179.516113 202.732377 
L 179.699812 204.83737 
L 180.030472 212.06227 
L 181.42659 247.798074 
L 181.90421 253.301666 
L 182.418569 256.763909 
L 182.969668 258.965042 
L 183.557507 260.413363 
L 184.218827 261.447543 
L 184.953626 262.188608 
L 185.835385 262.762618 
L 186.974323 263.225914 
L 188.517401 263.594555 
L 190.721798 263.874395 
L 194.028394 264.05371 
L 197.40847 264.036484 
L 198.694368 263.838663 
L 200.568106 263.432622 
L 201.376385 263.657264 
L 202.515324 263.923558 
L 203.984922 263.983031 
L 206.813898 263.851234 
L 209.385695 263.533016 
L 211.149213 263.102471 
L 212.398371 262.575059 
L 213.35361 261.929941 
L 214.125149 261.132247 
L 214.786468 260.106279 
L 215.337567 258.842545 
L 215.851927 257.097434 
L 216.329546 254.646797 
L 216.770426 251.163876 
L 217.211305 245.664862 
L 217.652184 236.878856 
L 218.129804 222.296485 
L 219.268742 184.416377 
L 219.452442 183.266476 
L 219.525922 183.45129 
L 219.672882 184.905055 
L 219.930062 190.555993 
L 220.407681 207.559365 
L 221.21596 235.245702 
L 221.730319 245.751818 
L 222.244679 251.90661 
L 222.759038 255.553995 
L 223.310137 257.963529 
L 223.897977 259.601422 
L 224.559296 260.802468 
L 225.294095 261.682379 
L 226.139114 262.353613 
L 227.204572 262.903864 
L 228.563951 263.341637 
L 230.437688 263.694171 
L 233.156445 263.960508 
L 237.27132 264.122832 
L 242.451653 264.107146 
L 246.015429 263.898597 
L 248.072866 263.573117 
L 249.395504 263.149105 
L 250.314003 262.630825 
L 251.012062 261.992204 
L 251.599902 261.15046 
L 252.114261 260.005432 
L 252.59188 258.337691 
L 253.03276 255.911584 
L 253.473639 252.13466 
L 253.987999 245.502978 
L 255.090197 230.117055 
L 255.310637 229.263759 
L 255.420857 229.303153 
L 255.567817 229.834189 
L 255.824996 231.951604 
L 256.265876 237.990212 
L 257.257855 251.946564 
L 257.808954 256.481778 
L 258.323313 258.990493 
L 258.874412 260.602004 
L 259.462252 261.653952 
L 260.123571 262.396046 
L 260.93185 262.96261 
L 261.960569 263.399349 
L 263.356687 263.738346 
L 265.414124 263.993493 
L 268.4268 264.13179 
L 270.557718 264.043472 
L 272.982555 263.854514 
L 275.480872 264.123408 
L 278.126148 264.040559 
L 280.550985 263.768234 
L 282.057323 263.392812 
L 283.086042 262.916714 
L 283.820841 262.345819 
L 284.40868 261.623004 
L 284.92304 260.640955 
L 285.400659 259.229445 
L 285.878278 257.06168 
L 286.392638 253.618252 
L 287.311137 245.491908 
L 288.045936 239.882279 
L 288.486815 237.958107 
L 288.707255 237.685676 
L 288.854215 237.832329 
L 289.037914 238.419207 
L 289.331834 240.277729 
L 289.809453 245.075763 
L 290.764692 254.776047 
L 291.315792 258.132361 
L 291.830151 260.032151 
L 292.38125 261.282762 
L 293.005829 262.157966 
L 293.740629 262.792689 
L 294.659127 263.271667 
L 295.871546 263.632447 
L 297.524844 263.877467 
L 299.472061 263.944779 
L 300.83144 263.790586 
L 301.639719 263.488533 
L 302.301038 263.004949 
L 304.027816 261.54209 
L 304.505435 261.534568 
L 304.983054 261.756274 
L 305.607634 262.332707 
L 306.856792 263.529449 
L 307.628331 263.903942 
L 308.69379 264.142701 
L 310.567527 264.299701 
L 314.351743 264.362906 
L 317.180719 264.232967 
L 318.319658 263.974162 
L 319.238156 263.514398 
L 320.156655 263.094615 
L 320.634275 263.119498 
L 321.258854 263.408462 
L 322.544752 264.041943 
L 323.610211 264.25483 
L 325.557428 264.36956 
L 330.407102 264.381612 
L 334.375017 264.222328 
L 336.946814 264.098588 
L 339.95949 264.056003 
L 342.457807 263.768595 
L 344.147845 263.366302 
L 345.323523 262.865237 
L 346.205282 262.245475 
L 346.903341 261.47551 
L 347.491181 260.486272 
L 348.00554 259.186203 
L 348.519899 257.22319 
L 349.034259 254.250372 
L 349.585358 249.594873 
L 350.430377 240.101691 
L 351.091696 233.615944 
L 351.459096 231.824595 
L 351.642796 231.610322 
L 351.789755 231.788461 
L 352.010195 232.629735 
L 352.340855 235.050955 
L 352.891954 241.115598 
L 353.920673 252.310236 
L 354.508512 256.346257 
L 355.059611 258.738561 
L 355.64745 260.346097 
L 356.27203 261.431069 
L 356.970089 262.214188 
L 357.815108 262.823171 
L 358.880566 263.30274 
L 360.313425 263.685797 
L 362.370862 263.986043 
L 365.567238 264.206571 
L 370.747571 264.322154 
L 375.560505 264.236073 
L 377.581203 264.011207 
L 378.683401 263.676626 
L 379.49168 263.200984 
L 380.740839 262.128281 
L 381.585858 261.586314 
L 383.239156 260.668529 
L 383.753515 260.503151 
L 384.157654 260.610902 
L 384.598534 260.991233 
L 385.443553 262.119673 
L 386.288572 263.083215 
L 387.023371 263.586892 
L 387.90513 263.915789 
L 389.227768 264.149517 
L 391.542385 264.300062 
L 395.253121 264.310787 
L 401.939792 264.192664 
L 404.438109 264.139021 
L 406.936426 263.881879 
L 408.516244 263.510597 
L 409.544962 263.052667 
L 410.316502 262.470578 
L 410.977821 261.676274 
L 411.6024 260.54161 
L 412.263719 258.844008 
L 414.468116 252.635419 
L 414.945736 252.094056 
L 415.313135 251.975822 
L 415.643795 252.108373 
L 416.011194 252.539278 
L 416.452074 253.453708 
L 417.076653 255.352459 
L 418.582991 260.15328 
L 419.24431 261.472426 
L 419.905629 262.32752 
L 420.640428 262.925975 
L 421.558927 263.379694 
L 422.808086 263.72954 
L 424.608343 263.983631 
L 427.21688 264.113603 
L 429.458017 264.027442 
L 433.536152 263.70202 
L 437.063188 264.034093 
L 439.414545 263.909415 
L 441.398502 263.600693 
L 442.721141 263.18615 
L 443.676379 262.663114 
L 444.447918 261.980876 
L 445.109238 261.094997 
L 445.770557 259.83003 
L 446.578836 257.761066 
L 448.379094 252.973928 
L 449.224112 251.433162 
L 449.811952 250.761886 
L 450.179351 250.632252 
L 450.473271 250.74925 
L 450.80393 251.147416 
L 451.20807 252.015134 
L 451.832649 253.993885 
L 453.449207 259.405288 
L 454.147266 260.902228 
L 454.845325 261.90125 
L 455.616864 262.616879 
L 456.535363 263.153365 
L 457.711042 263.569284 
L 459.36434 263.899382 
L 461.789177 264.137032 
L 464.765113 264.206507 
L 470.055666 264.25824 
L 472.076364 264.398306 
L 472.076364 264.398306 
" clip-path="url(#p862ae1dfe6)" style="fill: none; stroke: #e41a1c; stroke-width: 1.5; stroke-linecap: square"/>
   </g>
   <g id="LineCollection_1">
    <path d="M 94.14932 286.236285 
L 94.14932 276.63502 
" clip-path="url(#p862ae1dfe6)" style="fill: none; stroke: #e41a1c; stroke-width: 1.5"/>
    <path d="M 94.594268 286.236285 
L 94.594268 276.63502 
" clip-path="url(#p862ae1dfe6)" style="fill: none; stroke: #e41a1c; stroke-width: 1.5"/>
    <path d="M 128.879841 286.236285 
L 128.879841 276.63502 
" clip-path="url(#p862ae1dfe6)" style="fill: none; stroke: #e41a1c; stroke-width: 1.5"/>
    <path d="M 129.200058 286.236285 
L 129.200058 276.63502 
" clip-path="url(#p862ae1dfe6)" style="fill: none; stroke: #e41a1c; stroke-width: 1.5"/>
    <path d="M 156.03206 286.236285 
L 156.03206 276.63502 
" clip-path="url(#p862ae1dfe6)" style="fill: none; stroke: #e41a1c; stroke-width: 1.5"/>
    <path d="M 178.680672 286.236285 
L 178.680672 276.63502 
" clip-path="url(#p862ae1dfe6)" style="fill: none; stroke: #e41a1c; stroke-width: 1.5"/>
    <path d="M 179.626789 286.236285 
L 179.626789 276.63502 
" clip-path="url(#p862ae1dfe6)" style="fill: none; stroke: #e41a1c; stroke-width: 1.5"/>
    <path d="M 199.768663 286.236285 
L 199.768663 276.63502 
" clip-path="url(#p862ae1dfe6)" style="fill: none; stroke: #e41a1c; stroke-width: 1.5"/>
    <path d="M 200.429273 286.236285 
L 200.429273 276.63502 
" clip-path="url(#p862ae1dfe6)" style="fill: none; stroke: #e41a1c; stroke-width: 1.5"/>
    <path d="M 200.643047 286.236285 
L 200.643047 276.63502 
" clip-path="url(#p862ae1dfe6)" style="fill: none; stroke: #e41a1c; stroke-width: 1.5"/>
    <path d="M 219.264177 286.236285 
L 219.264177 276.63502 
" clip-path="url(#p862ae1dfe6)" style="fill: none; stroke: #e41a1c; stroke-width: 1.5"/>
    <path d="M 219.869878 286.236285 
L 219.869878 276.63502 
" clip-path="url(#p862ae1dfe6)" style="fill: none; stroke: #e41a1c; stroke-width: 1.5"/>
    <path d="M 255.129245 286.236285 
L 255.129245 276.63502 
" clip-path="url(#p862ae1dfe6)" style="fill: none; stroke: #e41a1c; stroke-width: 1.5"/>
    <path d="M 255.864208 286.236285 
L 255.864208 276.63502 
" clip-path="url(#p862ae1dfe6)" style="fill: none; stroke: #e41a1c; stroke-width: 1.5"/>
    <path d="M 271.113688 286.236285 
L 271.113688 276.63502 
" clip-path="url(#p862ae1dfe6)" style="fill: none; stroke: #e41a1c; stroke-width: 1.5"/>
    <path d="M 272.00228 286.236285 
L 272.00228 276.63502 
" clip-path="url(#p862ae1dfe6)" style="fill: none; stroke: #e41a1c; stroke-width: 1.5"/>
    <path d="M 272.538637 286.236285 
L 272.538637 276.63502 
" clip-path="url(#p862ae1dfe6)" style="fill: none; stroke: #e41a1c; stroke-width: 1.5"/>
    <path d="M 272.71796 286.236285 
L 272.71796 276.63502 
" clip-path="url(#p862ae1dfe6)" style="fill: none; stroke: #e41a1c; stroke-width: 1.5"/>
    <path d="M 287.54256 286.236285 
L 287.54256 276.63502 
" clip-path="url(#p862ae1dfe6)" style="fill: none; stroke: #e41a1c; stroke-width: 1.5"/>
    <path d="M 288.943685 286.236285 
L 288.943685 276.63502 
" clip-path="url(#p862ae1dfe6)" style="fill: none; stroke: #e41a1c; stroke-width: 1.5"/>
    <path d="M 289.09749 286.236285 
L 289.09749 276.63502 
" clip-path="url(#p862ae1dfe6)" style="fill: none; stroke: #e41a1c; stroke-width: 1.5"/>
    <path d="M 303.6227 286.236285 
L 303.6227 276.63502 
" clip-path="url(#p862ae1dfe6)" style="fill: none; stroke: #e41a1c; stroke-width: 1.5"/>
    <path d="M 305.010021 286.236285 
L 305.010021 276.63502 
" clip-path="url(#p862ae1dfe6)" style="fill: none; stroke: #e41a1c; stroke-width: 1.5"/>
    <path d="M 320.339727 286.236285 
L 320.339727 276.63502 
" clip-path="url(#p862ae1dfe6)" style="fill: none; stroke: #e41a1c; stroke-width: 1.5"/>
    <path d="M 335.183447 286.236285 
L 335.183447 276.63502 
" clip-path="url(#p862ae1dfe6)" style="fill: none; stroke: #e41a1c; stroke-width: 1.5"/>
    <path d="M 336.059166 286.236285 
L 336.059166 276.63502 
" clip-path="url(#p862ae1dfe6)" style="fill: none; stroke: #e41a1c; stroke-width: 1.5"/>
    <path d="M 336.719605 286.236285 
L 336.719605 276.63502 
" clip-path="url(#p862ae1dfe6)" style="fill: none; stroke: #e41a1c; stroke-width: 1.5"/>
    <path d="M 350.873256 286.236285 
L 350.873256 276.63502 
" clip-path="url(#p862ae1dfe6)" style="fill: none; stroke: #e41a1c; stroke-width: 1.5"/>
    <path d="M 351.730125 286.236285 
L 351.730125 276.63502 
" clip-path="url(#p862ae1dfe6)" style="fill: none; stroke: #e41a1c; stroke-width: 1.5"/>
    <path d="M 352.222095 286.236285 
L 352.222095 276.63502 
" clip-path="url(#p862ae1dfe6)" style="fill: none; stroke: #e41a1c; stroke-width: 1.5"/>
    <path d="M 381.245979 286.236285 
L 381.245979 276.63502 
" clip-path="url(#p862ae1dfe6)" style="fill: none; stroke: #e41a1c; stroke-width: 1.5"/>
    <path d="M 383.981635 286.236285 
L 383.981635 276.63502 
" clip-path="url(#p862ae1dfe6)" style="fill: none; stroke: #e41a1c; stroke-width: 1.5"/>
    <path d="M 397.297314 286.236285 
L 397.297314 276.63502 
" clip-path="url(#p862ae1dfe6)" style="fill: none; stroke: #e41a1c; stroke-width: 1.5"/>
    <path d="M 398.533511 286.236285 
L 398.533511 276.63502 
" clip-path="url(#p862ae1dfe6)" style="fill: none; stroke: #e41a1c; stroke-width: 1.5"/>
    <path d="M 399.382319 286.236285 
L 399.382319 276.63502 
" clip-path="url(#p862ae1dfe6)" style="fill: none; stroke: #e41a1c; stroke-width: 1.5"/>
    <path d="M 399.893944 286.236285 
L 399.893944 276.63502 
" clip-path="url(#p862ae1dfe6)" style="fill: none; stroke: #e41a1c; stroke-width: 1.5"/>
    <path d="M 400.064878 286.236285 
L 400.064878 276.63502 
" clip-path="url(#p862ae1dfe6)" style="fill: none; stroke: #e41a1c; stroke-width: 1.5"/>
    <path d="M 413.667257 286.236285 
L 413.667257 276.63502 
" clip-path="url(#p862ae1dfe6)" style="fill: none; stroke: #e41a1c; stroke-width: 1.5"/>
    <path d="M 414.921973 286.236285 
L 414.921973 276.63502 
" clip-path="url(#p862ae1dfe6)" style="fill: none; stroke: #e41a1c; stroke-width: 1.5"/>
    <path d="M 416.314488 286.236285 
L 416.314488 276.63502 
" clip-path="url(#p862ae1dfe6)" style="fill: none; stroke: #e41a1c; stroke-width: 1.5"/>
    <path d="M 416.50539 286.236285 
L 416.50539 276.63502 
" clip-path="url(#p862ae1dfe6)" style="fill: none; stroke: #e41a1c; stroke-width: 1.5"/>
    <path d="M 431.781489 286.236285 
L 431.781489 276.63502 
" clip-path="url(#p862ae1dfe6)" style="fill: none; stroke: #e41a1c; stroke-width: 1.5"/>
    <path d="M 433.270836 286.236285 
L 433.270836 276.63502 
" clip-path="url(#p862ae1dfe6)" style="fill: none; stroke: #e41a1c; stroke-width: 1.5"/>
    <path d="M 447.946647 286.236285 
L 447.946647 276.63502 
" clip-path="url(#p862ae1dfe6)" style="fill: none; stroke: #e41a1c; stroke-width: 1.5"/>
    <path d="M 450.24791 286.236285 
L 450.24791 276.63502 
" clip-path="url(#p862ae1dfe6)" style="fill: none; stroke: #e41a1c; stroke-width: 1.5"/>
    <path d="M 451.049909 286.236285 
L 451.049909 276.63502 
" clip-path="url(#p862ae1dfe6)" style="fill: none; stroke: #e41a1c; stroke-width: 1.5"/>
    <path d="M 466.208373 286.236285 
L 466.208373 276.63502 
" clip-path="url(#p862ae1dfe6)" style="fill: none; stroke: #e41a1c; stroke-width: 1.5"/>
    <path d="M 468.639578 286.236285 
L 468.639578 276.63502 
" clip-path="url(#p862ae1dfe6)" style="fill: none; stroke: #e41a1c; stroke-width: 1.5"/>
    <path d="M 469.276692 286.236285 
L 469.276692 276.63502 
" clip-path="url(#p862ae1dfe6)" style="fill: none; stroke: #e41a1c; stroke-width: 1.5"/>
   </g>
   <g id="line2d_8">
    <path d="M 49.603636 264.58272 
L 89.099087 264.427359 
L 92.038283 264.257528 
L 92.993522 263.996662 
L 94.57334 263.463661 
L 95.124439 263.608295 
L 96.704257 264.182488 
L 98.063635 264.282753 
L 101.774371 264.264867 
L 108.608002 264.020666 
L 112.980056 263.661663 
L 115.772293 263.223406 
L 117.71951 262.706688 
L 119.189109 262.096032 
L 120.328047 261.393237 
L 121.283286 260.546748 
L 122.091565 259.537104 
L 122.826364 258.250471 
L 123.487683 256.619649 
L 124.075522 254.57571 
L 124.626622 251.849141 
L 125.140981 248.156804 
L 125.618601 243.078417 
L 126.05948 235.992373 
L 126.500359 224.872518 
L 126.904499 208.488646 
L 127.308638 182.355863 
L 127.786258 134.510901 
L 128.778237 28.665036 
L 128.961936 24.601818 
L 129.035416 25.166242 
L 129.182376 29.962159 
L 129.439556 48.695091 
L 129.953915 108.280215 
L 130.651974 181.669428 
L 131.129594 211.454544 
L 131.607213 228.822938 
L 132.121572 239.713957 
L 132.672672 246.691971 
L 133.260511 251.32862 
L 133.88509 254.518997 
L 134.546409 256.781028 
L 135.244468 258.42593 
L 136.016007 259.699099 
L 136.861026 260.682706 
L 137.853005 261.494039 
L 139.028684 262.157514 
L 140.461542 262.701017 
L 142.298539 263.147736 
L 144.686636 263.48903 
L 147.662573 263.684476 
L 150.234369 263.647692 
L 151.740708 263.423853 
L 152.622466 263.088973 
L 153.247046 262.621126 
L 153.724665 261.986688 
L 154.165545 260.993599 
L 154.606424 259.352616 
L 155.157523 256.236997 
L 155.782102 252.938069 
L 156.002542 252.559949 
L 156.149502 252.642949 
L 156.333202 253.112747 
L 156.663861 254.743475 
L 157.72932 260.493246 
L 158.206939 261.790264 
L 158.721299 262.581334 
L 159.309138 263.088213 
L 160.080677 263.450179 
L 161.182876 263.706487 
L 162.946393 263.867569 
L 165.73863 263.88417 
L 168.677826 263.693977 
L 170.735264 263.352602 
L 172.094642 262.916502 
L 173.086621 262.374683 
L 173.85816 261.700412 
L 174.482739 260.856585 
L 175.033838 259.713357 
L 175.511458 258.183593 
L 175.952337 255.986453 
L 176.393216 252.511498 
L 176.834096 247.148132 
L 177.532155 235.204218 
L 178.156734 225.916971 
L 179.626332 210.633923 
L 179.773292 210.253245 
L 179.810032 210.28266 
L 179.920252 210.697833 
L 180.103952 212.513987 
L 180.397871 218.068353 
L 181.86747 250.481201 
L 182.345089 254.930259 
L 182.859448 257.758495 
L 183.410548 259.589333 
L 183.998387 260.816368 
L 184.659706 261.707534 
L 185.431245 262.382207 
L 186.386484 262.915872 
L 187.635642 263.343837 
L 189.36242 263.681647 
L 191.897477 263.930714 
L 195.497992 264.051371 
L 197.77587 263.949031 
L 199.355688 263.614518 
L 200.641586 263.467354 
L 201.449865 263.610699 
L 202.919463 263.90864 
L 204.572761 263.931862 
L 207.401737 263.740979 
L 209.679615 263.383544 
L 211.222693 262.931856 
L 212.361631 262.376343 
L 213.24339 261.703464 
L 213.978189 260.855653 
L 214.602768 259.782738 
L 215.153868 258.380026 
L 215.668227 256.412824 
L 216.145846 253.600123 
L 216.586726 249.534095 
L 217.027605 243.071153 
L 217.468485 232.971613 
L 218.056324 213.450335 
L 218.754383 191.709344 
L 219.048303 187.985315 
L 219.158523 187.698855 
L 219.195263 187.734553 
L 219.305482 188.216847 
L 219.525922 190.708321 
L 219.893322 198.33994 
L 220.628121 219.909764 
L 221.39966 240.142687 
L 221.950759 248.964534 
L 222.465118 253.815768 
L 222.979478 256.753337 
L 223.530577 258.733714 
L 224.155156 260.175244 
L 224.853215 261.223052 
L 225.624754 261.98856 
L 226.543253 262.59191 
L 227.718932 263.088461 
L 229.26201 263.486619 
L 231.429667 263.80201 
L 234.662783 264.029823 
L 239.402237 264.128791 
L 244.068211 264.021225 
L 246.860448 263.755298 
L 248.513746 263.393109 
L 249.615944 262.942179 
L 250.424223 262.386446 
L 251.085542 261.658143 
L 251.636642 260.705314 
L 252.114261 259.42532 
L 252.55514 257.597115 
L 252.99602 254.751141 
L 253.473639 250.00578 
L 254.208438 239.768942 
L 254.759538 233.520407 
L 255.053457 232.189132 
L 255.200417 232.118077 
L 255.347377 232.403003 
L 255.604557 233.600351 
L 256.045436 237.023108 
L 256.816975 245.143885 
L 257.735474 254.41818 
L 258.286573 257.887743 
L 258.800933 259.861612 
L 259.352032 261.153518 
L 259.976611 262.053242 
L 260.71141 262.706074 
L 261.593169 263.187193 
L 262.768848 263.56801 
L 264.458885 263.865821 
L 266.993942 264.068494 
L 269.749439 264.082262 
L 271.770136 263.886457 
L 273.056035 263.826418 
L 277.134169 264.056395 
L 279.669226 263.828606 
L 281.285784 263.478592 
L 282.351243 263.028825 
L 283.086042 262.490499 
L 283.673881 261.789061 
L 284.188241 260.809436 
L 284.66586 259.384565 
L 285.180219 257.064623 
L 286.649817 249.606789 
L 286.943737 249.278743 
L 287.311137 249.265523 
L 287.568316 249.176134 
L 287.788756 248.844633 
L 288.082676 247.875745 
L 288.486815 245.604541 
L 289.184874 241.632925 
L 289.405314 241.269114 
L 289.515534 241.344472 
L 289.699234 241.867121 
L 289.993153 243.648612 
L 290.544253 248.864379 
L 291.315792 255.695653 
L 291.866891 258.710367 
L 292.38125 260.416817 
L 292.93235 261.541085 
L 293.556929 262.328812 
L 294.291728 262.900607 
L 295.210227 263.331368 
L 296.459385 263.657788 
L 298.075943 263.843806 
L 299.582281 263.8147 
L 300.53752 263.594766 
L 301.272319 263.187951 
L 302.852137 262.157861 
L 303.403236 262.230292 
L 304.284995 262.366315 
L 305.607634 262.358402 
L 306.158733 262.736596 
L 307.481371 263.733177 
L 308.32639 264.028478 
L 309.649028 264.222652 
L 312.257565 264.340469 
L 316.18874 264.304958 
L 317.805298 264.106856 
L 318.687057 263.789108 
L 320.413835 263.026142 
L 320.928194 263.17969 
L 323.169331 264.174866 
L 324.60219 264.322815 
L 327.872045 264.385896 
L 333.162599 264.280647 
L 338.159233 264.081135 
L 340.657549 263.959242 
L 342.788467 263.640084 
L 344.258065 263.209652 
L 345.286784 262.686087 
L 346.058323 262.05358 
L 346.682902 261.263867 
L 347.234001 260.206969 
L 347.74836 258.716978 
L 348.26272 256.489885 
L 348.850559 252.80398 
L 350.834517 238.985407 
L 351.385616 237.036844 
L 351.753015 236.396958 
L 351.973455 236.384914 
L 352.157155 236.63868 
L 352.414335 237.440414 
L 352.781734 239.495247 
L 353.332833 244.128428 
L 354.545252 254.621838 
L 355.133091 257.777209 
L 355.72093 259.768939 
L 356.30877 261.023001 
L 356.970089 261.92527 
L 357.741628 262.597428 
L 358.696867 263.121096 
L 359.946025 263.536329 
L 361.709543 263.868124 
L 364.354819 264.11902 
L 368.616654 264.278469 
L 373.650028 264.256476 
L 375.891165 264.06091 
L 376.993364 263.76195 
L 377.838382 263.306996 
L 379.4182 262.368879 
L 379.93256 262.395137 
L 380.667359 262.701442 
L 381.549118 263.002329 
L 382.136957 262.955446 
L 382.688056 262.677311 
L 383.312636 262.08738 
L 384.561794 260.816581 
L 384.929194 260.766807 
L 385.296593 260.946426 
L 385.810952 261.495084 
L 387.280551 263.210961 
L 388.05209 263.679339 
L 389.007328 263.980328 
L 390.476927 264.185355 
L 393.011983 264.288992 
L 396.722719 264.202614 
L 401.682612 264.114046 
L 404.327889 264.05682 
L 406.311847 263.795154 
L 407.597745 263.42178 
L 408.479504 262.946659 
L 409.177563 262.320363 
L 409.838882 261.407625 
L 410.610421 259.91587 
L 411.82284 257.566845 
L 412.410679 256.934627 
L 413.145478 256.504218 
L 414.357896 256.030637 
L 415.276395 255.973917 
L 415.974454 255.813935 
L 416.892953 255.555106 
L 417.260353 255.729934 
L 417.627752 256.181854 
L 418.142112 257.245886 
L 420.052589 261.653472 
L 420.750648 262.502392 
L 421.522187 263.077252 
L 422.477426 263.494115 
L 423.800065 263.807536 
L 425.747282 264.020168 
L 428.172119 264.064642 
L 430.156076 263.885153 
L 432.140034 263.739026 
L 435.22619 263.811349 
L 437.540807 263.922772 
L 439.414545 263.761695 
L 440.920883 263.424469 
L 441.949602 262.980863 
L 442.757881 262.389049 
L 443.45594 261.590925 
L 444.190739 260.377931 
L 446.027736 257.06945 
L 446.468616 256.815539 
L 446.872755 256.831816 
L 448.379094 257.154814 
L 448.783233 256.822064 
L 449.260852 256.111516 
L 450.289571 254.018027 
L 450.87741 253.111253 
L 451.28155 252.849917 
L 451.612209 252.908116 
L 451.942869 253.218845 
L 452.383748 253.99382 
L 453.008328 255.61138 
L 454.735106 260.307938 
L 455.469905 261.563263 
L 456.204704 262.388055 
L 457.049723 262.989605 
L 458.078441 263.43622 
L 459.47456 263.784455 
L 461.421777 264.028018 
L 464.471193 264.151948 
L 469.431087 264.219341 
L 472.076364 264.351834 
L 472.076364 264.351834 
" clip-path="url(#p862ae1dfe6)" style="fill: none; stroke-dasharray: 5.55,2.4; stroke-dashoffset: 0; stroke: #377eb8; stroke-width: 1.5"/>
   </g>
   <g id="LineCollection_2">
    <path d="M 93.861489 300.638182 
L 93.861489 291.036917 
" clip-path="url(#p862ae1dfe6)" style="fill: none; stroke: #377eb8; stroke-width: 1.5"/>
    <path d="M 94.735361 300.638182 
L 94.735361 291.036917 
" clip-path="url(#p862ae1dfe6)" style="fill: none; stroke: #377eb8; stroke-width: 1.5"/>
    <path d="M 128.774897 300.638182 
L 128.774897 291.036917 
" clip-path="url(#p862ae1dfe6)" style="fill: none; stroke: #377eb8; stroke-width: 1.5"/>
    <path d="M 129.403226 300.638182 
L 129.403226 291.036917 
" clip-path="url(#p862ae1dfe6)" style="fill: none; stroke: #377eb8; stroke-width: 1.5"/>
    <path d="M 156.03206 300.638182 
L 156.03206 291.036917 
" clip-path="url(#p862ae1dfe6)" style="fill: none; stroke: #377eb8; stroke-width: 1.5"/>
    <path d="M 178.073328 300.638182 
L 178.073328 291.036917 
" clip-path="url(#p862ae1dfe6)" style="fill: none; stroke: #377eb8; stroke-width: 1.5"/>
    <path d="M 179.926947 300.638182 
L 179.926947 291.036917 
" clip-path="url(#p862ae1dfe6)" style="fill: none; stroke: #377eb8; stroke-width: 1.5"/>
    <path d="M 199.290238 300.638182 
L 199.290238 291.036917 
" clip-path="url(#p862ae1dfe6)" style="fill: none; stroke: #377eb8; stroke-width: 1.5"/>
    <path d="M 200.564229 300.638182 
L 200.564229 291.036917 
" clip-path="url(#p862ae1dfe6)" style="fill: none; stroke: #377eb8; stroke-width: 1.5"/>
    <path d="M 200.981617 300.638182 
L 200.981617 291.036917 
" clip-path="url(#p862ae1dfe6)" style="fill: none; stroke: #377eb8; stroke-width: 1.5"/>
    <path d="M 218.880664 300.638182 
L 218.880664 291.036917 
" clip-path="url(#p862ae1dfe6)" style="fill: none; stroke: #377eb8; stroke-width: 1.5"/>
    <path d="M 220.063385 300.638182 
L 220.063385 291.036917 
" clip-path="url(#p862ae1dfe6)" style="fill: none; stroke: #377eb8; stroke-width: 1.5"/>
    <path d="M 254.878906 300.638182 
L 254.878906 291.036917 
" clip-path="url(#p862ae1dfe6)" style="fill: none; stroke: #377eb8; stroke-width: 1.5"/>
    <path d="M 256.330868 300.638182 
L 256.330868 291.036917 
" clip-path="url(#p862ae1dfe6)" style="fill: none; stroke: #377eb8; stroke-width: 1.5"/>
    <path d="M 270.078019 300.638182 
L 270.078019 291.036917 
" clip-path="url(#p862ae1dfe6)" style="fill: none; stroke: #377eb8; stroke-width: 1.5"/>
    <path d="M 271.82403 300.638182 
L 271.82403 291.036917 
" clip-path="url(#p862ae1dfe6)" style="fill: none; stroke: #377eb8; stroke-width: 1.5"/>
    <path d="M 272.875089 300.638182 
L 272.875089 291.036917 
" clip-path="url(#p862ae1dfe6)" style="fill: none; stroke: #377eb8; stroke-width: 1.5"/>
    <path d="M 273.212492 300.638182 
L 273.212492 291.036917 
" clip-path="url(#p862ae1dfe6)" style="fill: none; stroke: #377eb8; stroke-width: 1.5"/>
    <path d="M 286.583637 300.638182 
L 286.583637 291.036917 
" clip-path="url(#p862ae1dfe6)" style="fill: none; stroke: #377eb8; stroke-width: 1.5"/>
    <path d="M 289.328554 300.638182 
L 289.328554 291.036917 
" clip-path="url(#p862ae1dfe6)" style="fill: none; stroke: #377eb8; stroke-width: 1.5"/>
    <path d="M 289.663068 300.638182 
L 289.663068 291.036917 
" clip-path="url(#p862ae1dfe6)" style="fill: none; stroke: #377eb8; stroke-width: 1.5"/>
    <path d="M 302.734542 300.638182 
L 302.734542 291.036917 
" clip-path="url(#p862ae1dfe6)" style="fill: none; stroke: #377eb8; stroke-width: 1.5"/>
    <path d="M 305.41746 300.638182 
L 305.41746 291.036917 
" clip-path="url(#p862ae1dfe6)" style="fill: none; stroke: #377eb8; stroke-width: 1.5"/>
    <path d="M 320.339727 300.638182 
L 320.339727 291.036917 
" clip-path="url(#p862ae1dfe6)" style="fill: none; stroke: #377eb8; stroke-width: 1.5"/>
    <path d="M 334.457891 300.638182 
L 334.457891 291.036917 
" clip-path="url(#p862ae1dfe6)" style="fill: none; stroke: #377eb8; stroke-width: 1.5"/>
    <path d="M 336.095774 300.638182 
L 336.095774 291.036917 
" clip-path="url(#p862ae1dfe6)" style="fill: none; stroke: #377eb8; stroke-width: 1.5"/>
    <path d="M 337.420162 300.638182 
L 337.420162 291.036917 
" clip-path="url(#p862ae1dfe6)" style="fill: none; stroke: #377eb8; stroke-width: 1.5"/>
    <path d="M 350.18337 300.638182 
L 350.18337 291.036917 
" clip-path="url(#p862ae1dfe6)" style="fill: none; stroke: #377eb8; stroke-width: 1.5"/>
    <path d="M 351.812002 300.638182 
L 351.812002 291.036917 
" clip-path="url(#p862ae1dfe6)" style="fill: none; stroke: #377eb8; stroke-width: 1.5"/>
    <path d="M 352.79822 300.638182 
L 352.79822 291.036917 
" clip-path="url(#p862ae1dfe6)" style="fill: none; stroke: #377eb8; stroke-width: 1.5"/>
    <path d="M 379.499706 300.638182 
L 379.499706 291.036917 
" clip-path="url(#p862ae1dfe6)" style="fill: none; stroke: #377eb8; stroke-width: 1.5"/>
    <path d="M 384.853501 300.638182 
L 384.853501 291.036917 
" clip-path="url(#p862ae1dfe6)" style="fill: none; stroke: #377eb8; stroke-width: 1.5"/>
    <path d="M 395.572711 300.638182 
L 395.572711 291.036917 
" clip-path="url(#p862ae1dfe6)" style="fill: none; stroke: #377eb8; stroke-width: 1.5"/>
    <path d="M 397.970326 300.638182 
L 397.970326 291.036917 
" clip-path="url(#p862ae1dfe6)" style="fill: none; stroke: #377eb8; stroke-width: 1.5"/>
    <path d="M 399.666337 300.638182 
L 399.666337 291.036917 
" clip-path="url(#p862ae1dfe6)" style="fill: none; stroke: #377eb8; stroke-width: 1.5"/>
    <path d="M 400.693327 300.638182 
L 400.693327 291.036917 
" clip-path="url(#p862ae1dfe6)" style="fill: none; stroke: #377eb8; stroke-width: 1.5"/>
    <path d="M 401.037242 300.638182 
L 401.037242 291.036917 
" clip-path="url(#p862ae1dfe6)" style="fill: none; stroke: #377eb8; stroke-width: 1.5"/>
    <path d="M 411.928235 300.638182 
L 411.928235 291.036917 
" clip-path="url(#p862ae1dfe6)" style="fill: none; stroke: #377eb8; stroke-width: 1.5"/>
    <path d="M 414.418816 300.638182 
L 414.418816 291.036917 
" clip-path="url(#p862ae1dfe6)" style="fill: none; stroke: #377eb8; stroke-width: 1.5"/>
    <path d="M 417.207465 300.638182 
L 417.207465 291.036917 
" clip-path="url(#p862ae1dfe6)" style="fill: none; stroke: #377eb8; stroke-width: 1.5"/>
    <path d="M 417.527688 300.638182 
L 417.527688 291.036917 
" clip-path="url(#p862ae1dfe6)" style="fill: none; stroke: #377eb8; stroke-width: 1.5"/>
    <path d="M 431.288346 300.638182 
L 431.288346 291.036917 
" clip-path="url(#p862ae1dfe6)" style="fill: none; stroke: #377eb8; stroke-width: 1.5"/>
    <path d="M 434.200368 300.638182 
L 434.200368 291.036917 
" clip-path="url(#p862ae1dfe6)" style="fill: none; stroke: #377eb8; stroke-width: 1.5"/>
    <path d="M 446.224634 300.638182 
L 446.224634 291.036917 
" clip-path="url(#p862ae1dfe6)" style="fill: none; stroke: #377eb8; stroke-width: 1.5"/>
    <path d="M 450.728582 300.638182 
L 450.728582 291.036917 
" clip-path="url(#p862ae1dfe6)" style="fill: none; stroke: #377eb8; stroke-width: 1.5"/>
    <path d="M 452.261215 300.638182 
L 452.261215 291.036917 
" clip-path="url(#p862ae1dfe6)" style="fill: none; stroke: #377eb8; stroke-width: 1.5"/>
    <path d="M 464.433679 300.638182 
L 464.433679 291.036917 
" clip-path="url(#p862ae1dfe6)" style="fill: none; stroke: #377eb8; stroke-width: 1.5"/>
    <path d="M 469.185502 300.638182 
L 469.185502 291.036917 
" clip-path="url(#p862ae1dfe6)" style="fill: none; stroke: #377eb8; stroke-width: 1.5"/>
    <path d="M 470.375546 300.638182 
L 470.375546 291.036917 
" clip-path="url(#p862ae1dfe6)" style="fill: none; stroke: #377eb8; stroke-width: 1.5"/>
   </g>
   <g id="patch_3">
    <path d="M 28.48 314.44 
L 28.48 10.8 
" style="fill: none; stroke: #000000; stroke-width: 0.8; stroke-linejoin: miter; stroke-linecap: square"/>
   </g>
   <g id="patch_4">
    <path d="M 493.2 314.44 
L 493.2 10.8 
" style="fill: none; stroke: #000000; stroke-width: 0.8; stroke-linejoin: miter; stroke-linecap: square"/>
   </g>
   <g id="patch_5">
    <path d="M 28.48 314.44 
L 493.2 314.44 
" style="fill: none; stroke: #000000; stroke-width: 0.8; stroke-linejoin: miter; stroke-linecap: square"/>
   </g>
   <g id="patch_6">
    <path d="M 28.48 10.8 
L 493.2 10.8 
" style="fill: none; stroke: #000000; stroke-width: 0.8; stroke-linejoin: miter; stroke-linecap: square"/>
   </g>
   <g id="legend_1">
    <g id="patch_7">
     <path d="M 378.178437 95.389375 
L 484.1 95.389375 
Q 486.7 95.389375 486.7 92.789375 
L 486.7 19.9 
Q 486.7 17.3 484.1 17.3 
L 378.178437 17.3 
Q 375.578437 17.3 375.578437 19.9 
L 375.578437 92.789375 
Q 375.578437 95.389375 378.178437 95.389375 
z
" style="fill: #ffffff; opacity: 0.8; stroke: #cccccc; stroke-linejoin: miter"/>
    </g>
    <g id="line2d_9">
     <path d="M 380.778437 27.413594 
L 393.778437 27.413594 
L 406.778437 27.413594 
" style="fill: none; stroke: #e41a1c; stroke-width: 1.5; stroke-linecap: square"/>
    </g>
    <g id="text_9">
     <!-- profile#123 -->
     <g transform="translate(417.178437 31.963594) scale(0.13 -0.13)">
      <defs>
       <path id="ArialMT-70" d="M 422 -1272 
L 422 3319 
L 934 3319 
L 934 2888 
Q 1116 3141 1344 3267 
Q 1572 3394 1897 3394 
Q 2322 3394 2647 3175 
Q 2972 2956 3137 2557 
Q 3303 2159 3303 1684 
Q 3303 1175 3120 767 
Q 2938 359 2589 142 
Q 2241 -75 1856 -75 
Q 1575 -75 1351 44 
Q 1128 163 984 344 
L 984 -1272 
L 422 -1272 
z
M 931 1641 
Q 931 1000 1190 694 
Q 1450 388 1819 388 
Q 2194 388 2461 705 
Q 2728 1022 2728 1688 
Q 2728 2322 2467 2637 
Q 2206 2953 1844 2953 
Q 1484 2953 1207 2617 
Q 931 2281 931 1641 
z
" transform="scale(0.015625)"/>
       <path id="ArialMT-72" d="M 416 0 
L 416 3319 
L 922 3319 
L 922 2816 
Q 1116 3169 1280 3281 
Q 1444 3394 1641 3394 
Q 1925 3394 2219 3213 
L 2025 2691 
Q 1819 2813 1613 2813 
Q 1428 2813 1281 2702 
Q 1134 2591 1072 2394 
Q 978 2094 978 1738 
L 978 0 
L 416 0 
z
" transform="scale(0.015625)"/>
       <path id="ArialMT-6f" d="M 213 1659 
Q 213 2581 725 3025 
Q 1153 3394 1769 3394 
Q 2453 3394 2887 2945 
Q 3322 2497 3322 1706 
Q 3322 1066 3130 698 
Q 2938 331 2570 128 
Q 2203 -75 1769 -75 
Q 1072 -75 642 372 
Q 213 819 213 1659 
z
M 791 1659 
Q 791 1022 1069 705 
Q 1347 388 1769 388 
Q 2188 388 2466 706 
Q 2744 1025 2744 1678 
Q 2744 2294 2464 2611 
Q 2184 2928 1769 2928 
Q 1347 2928 1069 2612 
Q 791 2297 791 1659 
z
" transform="scale(0.015625)"/>
       <path id="ArialMT-66" d="M 556 0 
L 556 2881 
L 59 2881 
L 59 3319 
L 556 3319 
L 556 3672 
Q 556 4006 616 4169 
Q 697 4388 901 4523 
Q 1106 4659 1475 4659 
Q 1713 4659 2000 4603 
L 1916 4113 
Q 1741 4144 1584 4144 
Q 1328 4144 1222 4034 
Q 1116 3925 1116 3625 
L 1116 3319 
L 1763 3319 
L 1763 2881 
L 1116 2881 
L 1116 0 
L 556 0 
z
" transform="scale(0.015625)"/>
       <path id="ArialMT-69" d="M 425 3934 
L 425 4581 
L 988 4581 
L 988 3934 
L 425 3934 
z
M 425 0 
L 425 3319 
L 988 3319 
L 988 0 
L 425 0 
z
" transform="scale(0.015625)"/>
       <path id="ArialMT-6c" d="M 409 0 
L 409 4581 
L 972 4581 
L 972 0 
L 409 0 
z
" transform="scale(0.015625)"/>
       <path id="ArialMT-65" d="M 2694 1069 
L 3275 997 
Q 3138 488 2766 206 
Q 2394 -75 1816 -75 
Q 1088 -75 661 373 
Q 234 822 234 1631 
Q 234 2469 665 2931 
Q 1097 3394 1784 3394 
Q 2450 3394 2872 2941 
Q 3294 2488 3294 1666 
Q 3294 1616 3291 1516 
L 816 1516 
Q 847 969 1125 678 
Q 1403 388 1819 388 
Q 2128 388 2347 550 
Q 2566 713 2694 1069 
z
M 847 1978 
L 2700 1978 
Q 2663 2397 2488 2606 
Q 2219 2931 1791 2931 
Q 1403 2931 1139 2672 
Q 875 2413 847 1978 
z
" transform="scale(0.015625)"/>
       <path id="ArialMT-23" d="M 322 -78 
L 594 1253 
L 66 1253 
L 66 1719 
L 688 1719 
L 919 2853 
L 66 2853 
L 66 3319 
L 1013 3319 
L 1284 4659 
L 1753 4659 
L 1481 3319 
L 2466 3319 
L 2738 4659 
L 3209 4659 
L 2938 3319 
L 3478 3319 
L 3478 2853 
L 2844 2853 
L 2609 1719 
L 3478 1719 
L 3478 1253 
L 2516 1253 
L 2244 -78 
L 1775 -78 
L 2044 1253 
L 1063 1253 
L 791 -78 
L 322 -78 
z
M 1156 1719 
L 2138 1719 
L 2372 2853 
L 1388 2853 
L 1156 1719 
z
" transform="scale(0.015625)"/>
       <path id="ArialMT-31" d="M 2384 0 
L 1822 0 
L 1822 3584 
Q 1619 3391 1289 3197 
Q 959 3003 697 2906 
L 697 3450 
Q 1169 3672 1522 3987 
Q 1875 4303 2022 4600 
L 2384 4600 
L 2384 0 
z
" transform="scale(0.015625)"/>
       <path id="ArialMT-33" d="M 269 1209 
L 831 1284 
Q 928 806 1161 595 
Q 1394 384 1728 384 
Q 2125 384 2398 659 
Q 2672 934 2672 1341 
Q 2672 1728 2419 1979 
Q 2166 2231 1775 2231 
Q 1616 2231 1378 2169 
L 1441 2663 
Q 1497 2656 1531 2656 
Q 1891 2656 2178 2843 
Q 2466 3031 2466 3422 
Q 2466 3731 2256 3934 
Q 2047 4138 1716 4138 
Q 1388 4138 1169 3931 
Q 950 3725 888 3313 
L 325 3413 
Q 428 3978 793 4289 
Q 1159 4600 1703 4600 
Q 2078 4600 2393 4439 
Q 2709 4278 2876 4000 
Q 3044 3722 3044 3409 
Q 3044 3113 2884 2869 
Q 2725 2625 2413 2481 
Q 2819 2388 3044 2092 
Q 3269 1797 3269 1353 
Q 3269 753 2831 336 
Q 2394 -81 1725 -81 
Q 1122 -81 723 278 
Q 325 638 269 1209 
z
" transform="scale(0.015625)"/>
      </defs>
      <use xlink:href="#ArialMT-70"/>
      <use xlink:href="#ArialMT-72" x="55.615234"/>
      <use xlink:href="#ArialMT-6f" x="88.916016"/>
      <use xlink:href="#ArialMT-66" x="144.53125"/>
      <use xlink:href="#ArialMT-69" x="172.314453"/>
      <use xlink:href="#ArialMT-6c" x="194.53125"/>
      <use xlink:href="#ArialMT-65" x="216.748047"/>
      <use xlink:href="#ArialMT-23" x="272.363281"/>
      <use xlink:href="#ArialMT-31" x="327.978516"/>
      <use xlink:href="#ArialMT-32" x="383.59375"/>
      <use xlink:href="#ArialMT-33" x="439.208984"/>
     </g>
    </g>
    <g id="line2d_10">
     <path d="M 380.778437 45.960938 
L 406.778437 45.960938 
" style="fill: none; stroke: #e41a1c; stroke-width: 1.5"/>
    </g>
    <g id="text_10">
     <!-- peaks#123 -->
     <g transform="translate(417.178437 50.510938) scale(0.13 -0.13)">
      <defs>
       <path id="ArialMT-6b" d="M 425 0 
L 425 4581 
L 988 4581 
L 988 1969 
L 2319 3319 
L 3047 3319 
L 1778 2088 
L 3175 0 
L 2481 0 
L 1384 1697 
L 988 1316 
L 988 0 
L 425 0 
z
" transform="scale(0.015625)"/>
       <path id="ArialMT-73" d="M 197 991 
L 753 1078 
Q 800 744 1014 566 
Q 1228 388 1613 388 
Q 2000 388 2187 545 
Q 2375 703 2375 916 
Q 2375 1106 2209 1216 
Q 2094 1291 1634 1406 
Q 1016 1563 777 1677 
Q 538 1791 414 1992 
Q 291 2194 291 2438 
Q 291 2659 392 2848 
Q 494 3038 669 3163 
Q 800 3259 1026 3326 
Q 1253 3394 1513 3394 
Q 1903 3394 2198 3281 
Q 2494 3169 2634 2976 
Q 2775 2784 2828 2463 
L 2278 2388 
Q 2241 2644 2061 2787 
Q 1881 2931 1553 2931 
Q 1166 2931 1000 2803 
Q 834 2675 834 2503 
Q 834 2394 903 2306 
Q 972 2216 1119 2156 
Q 1203 2125 1616 2013 
Q 2213 1853 2448 1751 
Q 2684 1650 2818 1456 
Q 2953 1263 2953 975 
Q 2953 694 2789 445 
Q 2625 197 2315 61 
Q 2006 -75 1616 -75 
Q 969 -75 630 194 
Q 291 463 197 991 
z
" transform="scale(0.015625)"/>
      </defs>
      <use xlink:href="#ArialMT-70"/>
      <use xlink:href="#ArialMT-65" x="55.615234"/>
      <use xlink:href="#ArialMT-61" x="111.230469"/>
      <use xlink:href="#ArialMT-6b" x="166.845703"/>
      <use xlink:href="#ArialMT-73" x="216.845703"/>
      <use xlink:href="#ArialMT-23" x="266.845703"/>
      <use xlink:href="#ArialMT-31" x="322.460938"/>
      <use xlink:href="#ArialMT-32" x="378.076172"/>
      <use xlink:href="#ArialMT-33" x="433.691406"/>
     </g>
    </g>
    <g id="line2d_11">
     <path d="M 380.778437 64.508281 
L 393.778437 64.508281 
L 406.778437 64.508281 
" style="fill: none; stroke-dasharray: 5.55,2.4; stroke-dashoffset: 0; stroke: #377eb8; stroke-width: 1.5"/>
    </g>
    <g id="text_11">
     <!-- profile#99 -->
     <g transform="translate(417.178437 69.058281) scale(0.13 -0.13)">
      <defs>
       <path id="ArialMT-39" d="M 350 1059 
L 891 1109 
Q 959 728 1153 556 
Q 1347 384 1650 384 
Q 1909 384 2104 503 
Q 2300 622 2425 820 
Q 2550 1019 2634 1356 
Q 2719 1694 2719 2044 
Q 2719 2081 2716 2156 
Q 2547 1888 2255 1720 
Q 1963 1553 1622 1553 
Q 1053 1553 659 1965 
Q 266 2378 266 3053 
Q 266 3750 677 4175 
Q 1088 4600 1706 4600 
Q 2153 4600 2523 4359 
Q 2894 4119 3086 3673 
Q 3278 3228 3278 2384 
Q 3278 1506 3087 986 
Q 2897 466 2520 194 
Q 2144 -78 1638 -78 
Q 1100 -78 759 220 
Q 419 519 350 1059 
z
M 2653 3081 
Q 2653 3566 2395 3850 
Q 2138 4134 1775 4134 
Q 1400 4134 1122 3828 
Q 844 3522 844 3034 
Q 844 2597 1108 2323 
Q 1372 2050 1759 2050 
Q 2150 2050 2401 2323 
Q 2653 2597 2653 3081 
z
" transform="scale(0.015625)"/>
      </defs>
      <use xlink:href="#ArialMT-70"/>
      <use xlink:href="#ArialMT-72" x="55.615234"/>
      <use xlink:href="#ArialMT-6f" x="88.916016"/>
      <use xlink:href="#ArialMT-66" x="144.53125"/>
      <use xlink:href="#ArialMT-69" x="172.314453"/>
      <use xlink:href="#ArialMT-6c" x="194.53125"/>
      <use xlink:href="#ArialMT-65" x="216.748047"/>
      <use xlink:href="#ArialMT-23" x="272.363281"/>
      <use xlink:href="#ArialMT-39" x="327.978516"/>
      <use xlink:href="#ArialMT-39" x="383.59375"/>
     </g>
    </g>
    <g id="line2d_12">
     <path d="M 380.778437 83.055625 
L 406.778437 83.055625 
" style="fill: none; stroke: #377eb8; stroke-width: 1.5"/>
    </g>
    <g id="text_12">
     <!-- peaks#99 -->
     <g transform="translate(417.178437 87.605625) scale(0.13 -0.13)">
      <use xlink:href="#ArialMT-70"/>
      <use xlink:href="#ArialMT-65" x="55.615234"/>
      <use xlink:href="#ArialMT-61" x="111.230469"/>
      <use xlink:href="#ArialMT-6b" x="166.845703"/>
      <use xlink:href="#ArialMT-73" x="216.845703"/>
      <use xlink:href="#ArialMT-23" x="266.845703"/>
      <use xlink:href="#ArialMT-39" x="322.460938"/>
      <use xlink:href="#ArialMT-39" x="378.076172"/>
     </g>
    </g>
   </g>
  </g>
 </g>
 <defs>
  <clipPath id="p862ae1dfe6">
   <rect x="28.48" y="10.8" width="464.72" height="303.64"/>
  </clipPath>
 </defs>
</svg>
